<svg id="Layer_1" data-name="Layer 1" xmlns="http://www.w3.org/2000/svg" viewBox="0 0 700 700"><defs><style>.cls-1{fill:#fff;}</style></defs><title>spinner</title><circle class="cls-1" cx="349.32" cy="49.24" r="35.04"/><path class="cls-1" d="M335.23,83.48a37,37,0,1,1,51.1-34.33h0a37.06,37.06,0,0,1-51.1,34.33Zm26.69-64.84a33.09,33.09,0,1,0,20.47,30.52h0a33.16,33.16,0,0,0-20.47-30.52Z"/><circle class="cls-1" cx="349.53" cy="143.32" r="24.41"/><path class="cls-1" d="M339.53,167.73a26.38,26.38,0,1,1,36.38-24.47h0a26.4,26.4,0,0,1-26.32,26.44A26.11,26.11,0,0,1,339.53,167.73Zm18.52-45.17A22.44,22.44,0,1,0,372,143.27h0A22.49,22.49,0,0,0,358.05,122.56Z"/><circle class="cls-1" cx="349.69" cy="211.82" r="16.53"/><path class="cls-1" d="M342.67,228.94a18.51,18.51,0,1,1,7.06,1.38A18.25,18.25,0,0,1,342.67,228.94Zm12.57-30.59a14.57,14.57,0,1,0,9,13.44h0a14.56,14.56,0,0,0-9-13.44Z"/><circle class="cls-1" cx="349.8" cy="262.61" r="10.63"/><path class="cls-1" d="M345,274.26a12.6,12.6,0,1,1,17.39-11.68h0a12.6,12.6,0,0,1-12.57,12.62A12.47,12.47,0,0,1,345,274.26Zm8.09-19.67a8.46,8.46,0,0,0-3.32-.64,8.67,8.67,0,0,0-8.64,8.68,8.66,8.66,0,0,0,17.32,0,8.7,8.7,0,0,0-5.36-8Z"/><circle class="cls-1" cx="349.87" cy="293.71" r="7.09"/><path class="cls-1" d="M346.43,302.08a8.71,8.71,0,0,1-2.94-2,8.94,8.94,0,0,1-2.67-6.39,9.05,9.05,0,1,1,9.07,9A9,9,0,0,1,346.43,302.08ZM351.81,289a5.06,5.06,0,0,0-1.95-.38,5.11,5.11,0,0,0-5.1,5.13,5.12,5.12,0,0,0,8.74,3.6,5.12,5.12,0,0,0-1.69-8.35Z"/><circle class="cls-1" cx="350.68" cy="650.76" r="35.04"/><path class="cls-1" d="M336.58,685a37.08,37.08,0,1,1,14.18,2.77A37,37,0,0,1,336.58,685Zm26.69-64.83a33.08,33.08,0,0,0-45.66,30.67h0a33.05,33.05,0,1,0,45.66-30.67Z"/><circle class="cls-1" cx="350.47" cy="556.68" r="24.41"/><path class="cls-1" d="M340.46,581.08a26.4,26.4,0,0,1-16.37-24.34h0a26.38,26.38,0,1,1,26.44,26.31A26.13,26.13,0,0,1,340.46,581.08ZM328,556.73a22.44,22.44,0,1,0,22.39-22.49A22.46,22.46,0,0,0,328,556.73Z"/><circle class="cls-1" cx="350.31" cy="488.18" r="16.53"/><path class="cls-1" d="M343.27,505.3a18.63,18.63,0,0,1-6-4,18.35,18.35,0,0,1-5.45-13.07h0a18.46,18.46,0,1,1,11.46,17.08Zm12.57-30.6a14.56,14.56,0,0,0-20.09,13.51h0a14.57,14.57,0,0,0,29.13-.06A14.62,14.62,0,0,0,355.84,474.7Z"/><circle class="cls-1" cx="350.2" cy="437.39" r="10.63"/><path class="cls-1" d="M345.42,449.05a12.6,12.6,0,0,1,4.75-24.25,12.6,12.6,0,1,1-4.75,24.25Zm8.07-19.67a8.69,8.69,0,1,0,2.82,1.88A8.61,8.61,0,0,0,353.49,429.38Z"/><circle class="cls-1" cx="350.13" cy="406.29" r="7.09"/><path class="cls-1" d="M346.69,414.67a9.05,9.05,0,0,1-5.62-8.35h0a9.06,9.06,0,0,1,15.45-6.43,9,9,0,0,1,2.66,6.39,9,9,0,0,1-12.49,8.4ZM345,406.31a5.12,5.12,0,0,0,10.23,0,5.1,5.1,0,0,0-5.12-5.1,5.11,5.11,0,0,0-5.11,5.13Z"/><circle class="cls-1" cx="136.85" cy="137.81" r="35.04"/><path class="cls-1" d="M122.76,172.05A37,37,0,1,1,163,111.58h0a37,37,0,0,1-40.2,60.47Zm26.68-64.84a33.11,33.11,0,1,0,10.74,7.16A33,33,0,0,0,149.44,107.21Z"/><circle class="cls-1" cx="203.53" cy="204.19" r="24.41"/><path class="cls-1" d="M193.46,228.56a26,26,0,0,1-8.54-5.68,26.38,26.38,0,0,1,37.22-37.39h0a26.38,26.38,0,0,1-28.68,43.07Zm18.64-45.11a22.42,22.42,0,1,0,7.26,4.83h0A22.33,22.33,0,0,0,212.1,183.45Z"/><circle class="cls-1" cx="252.07" cy="252.51" r="16.53"/><path class="cls-1" d="M245,269.63a18.51,18.51,0,1,1,20.1-30.23h0A18.51,18.51,0,0,1,245,269.63ZM257.62,239a14.57,14.57,0,1,0,4.78,23.75A14.58,14.58,0,0,0,257.62,239Z"/><circle class="cls-1" cx="288.06" cy="288.34" r="10.63"/><path class="cls-1" d="M283.27,300a12.63,12.63,0,1,1,4.82.94A12.66,12.66,0,0,1,283.27,300Zm8.09-19.67a8.66,8.66,0,1,0,2.81,1.87h0A8.75,8.75,0,0,0,291.36,280.33Z"/><circle class="cls-1" cx="310.1" cy="310.28" r="7.09"/><path class="cls-1" d="M306.66,318.66a9.05,9.05,0,1,1,9.83-14.79h0a9.05,9.05,0,0,1-9.83,14.79Zm5.4-13.11a5.12,5.12,0,1,0-1.94,9.85,5.06,5.06,0,0,0,3.61-1.51,5.11,5.11,0,0,0,0-7.23h0A5,5,0,0,0,312.06,305.55Z"/><circle class="cls-1" cx="563.15" cy="562.19" r="35.04"/><path class="cls-1" d="M549,596.39a36.78,36.78,0,0,1-12-8h0a37,37,0,1,1,12,8Zm-9.2-10.76a33.07,33.07,0,1,0-.11-46.77,33.11,33.11,0,0,0,.11,46.77Z"/><circle class="cls-1" cx="496.47" cy="495.81" r="24.41"/><path class="cls-1" d="M486.4,520.19a26.38,26.38,0,1,1,28.76-5.77A26.42,26.42,0,0,1,486.4,520.19ZM505,475.07a22.45,22.45,0,1,0,7.26,4.84A22.48,22.48,0,0,0,505,475.07Z"/><circle class="cls-1" cx="447.93" cy="447.49" r="16.53"/><path class="cls-1" d="M440.86,464.59a18.48,18.48,0,0,1-6-4h0a18.5,18.5,0,1,1,6,4Zm-3.21-6.78a14.57,14.57,0,1,0,0-20.6,14.58,14.58,0,0,0,0,20.6Z"/><circle class="cls-1" cx="411.94" cy="411.66" r="10.63"/><path class="cls-1" d="M407.14,423.31a12.6,12.6,0,1,1,13.68-20.58,12.6,12.6,0,0,1-13.68,20.58Zm8.09-19.67a8.69,8.69,0,1,0,2.82,1.88A8.6,8.6,0,0,0,415.23,403.64Z"/><circle class="cls-1" cx="389.9" cy="389.72" r="7.09"/><path class="cls-1" d="M386.44,398.09a8.82,8.82,0,0,1-2.93-2h0a9,9,0,1,1,2.93,2Zm-.15-4.75a5.12,5.12,0,0,0,7.23,0,5.12,5.12,0,0,0-3.64-8.73,5.06,5.06,0,0,0-3.61,1.51,5.12,5.12,0,0,0,0,7.23Z"/><circle class="cls-1" cx="49.24" cy="350.68" r="35.04"/><path class="cls-1" d="M35.15,384.92a37,37,0,0,1,14-71.25h0a37,37,0,1,1-14,71.25Zm14-67.31a33.07,33.07,0,1,0,23.41,9.63,33.11,33.11,0,0,0-23.41-9.63Z"/><circle class="cls-1" cx="143.32" cy="350.47" r="24.41"/><path class="cls-1" d="M133.32,374.87a26.38,26.38,0,0,1,9.94-50.78h0a26.38,26.38,0,1,1,.12,52.75A26.11,26.11,0,0,1,133.32,374.87Zm10-46.84a22.44,22.44,0,1,0,22.49,22.38A22.46,22.46,0,0,0,143.27,328Z"/><circle class="cls-1" cx="211.82" cy="350.31" r="16.53"/><path class="cls-1" d="M204.8,367.43a18.5,18.5,0,0,1,7-35.62h0a18.5,18.5,0,1,1-7,35.62Zm12.57-30.6a14.59,14.59,0,0,0-5.58-1.08h0a14.56,14.56,0,0,0-14.53,14.59,14.55,14.55,0,1,0,20.11-13.51Z"/><circle class="cls-1" cx="262.61" cy="350.2" r="10.63"/><path class="cls-1" d="M257.81,361.85a12.6,12.6,0,0,1,4.77-24.25h0a12.6,12.6,0,1,1-4.77,24.25Zm8.09-19.67a8.6,8.6,0,0,0-3.31-.64h0a8.66,8.66,0,0,0,0,17.32,8.67,8.67,0,0,0,3.28-16.68Z"/><circle class="cls-1" cx="293.71" cy="350.13" r="7.09"/><path class="cls-1" d="M290.26,358.5a8.71,8.71,0,0,1-2.94-2,9,9,0,0,1-2.67-6.39,9.06,9.06,0,0,1,9-9.08h0a9.06,9.06,0,1,1-3.42,17.43Zm5.39-13.11a5.15,5.15,0,0,0-2-.38h0a5.12,5.12,0,0,0-3.6,8.74,5.12,5.12,0,0,0,8.73-3.63,5.11,5.11,0,0,0-3.17-4.73Z"/><circle class="cls-1" cx="650.76" cy="349.32" r="35.04"/><path class="cls-1" d="M636.72,383.56a37,37,0,1,1,14.13,2.77h0A36.92,36.92,0,0,1,636.72,383.56Zm26.59-64.83a32.76,32.76,0,0,0-12.62-2.48,33.09,33.09,0,1,0,12.62,2.48Z"/><circle class="cls-1" cx="556.68" cy="349.53" r="24.41"/><path class="cls-1" d="M546.67,373.94a26.38,26.38,0,1,1,10.07,2h0A26.16,26.16,0,0,1,546.67,373.94Zm18.52-45.17a22.44,22.44,0,1,0,13.93,20.71A22.36,22.36,0,0,0,565.19,328.77Z"/><circle class="cls-1" cx="488.18" cy="349.69" r="16.53"/><path class="cls-1" d="M481.16,366.81a18.51,18.51,0,1,1,7.06,1.38A18.52,18.52,0,0,1,481.16,366.81Zm12.54-30.6a14.56,14.56,0,1,0-5.49,28h0a14.56,14.56,0,0,0,5.49-28Z"/><circle class="cls-1" cx="437.39" cy="349.8" r="10.63"/><path class="cls-1" d="M432.61,361.46A12.6,12.6,0,1,1,450,349.77a12.6,12.6,0,0,1-12.57,12.63h0A12.65,12.65,0,0,1,432.61,361.46Zm8.07-19.67a8.66,8.66,0,1,0-3.27,16.67,8.67,8.67,0,0,0,8.65-8.68A8.69,8.69,0,0,0,440.68,341.79Z"/><circle class="cls-1" cx="406.29" cy="349.87" r="7.09"/><path class="cls-1" d="M402.85,358.25a9.06,9.06,0,1,1,3.47.68h0A9,9,0,0,1,402.85,358.25Zm5.39-13.11a5,5,0,0,0-2-.38,5.12,5.12,0,0,0-3.6,8.74,5.13,5.13,0,0,0,3.63,1.49h0a5.12,5.12,0,0,0,1.93-9.85Z"/><circle class="cls-1" cx="137.81" cy="563.15" r="35.04"/><path class="cls-1" d="M123.72,597.39a37,37,0,0,1,14-71.24,37,37,0,1,1-14,71.24Zm26.71-64.8a33.07,33.07,0,1,0,10.71,7.13A33.12,33.12,0,0,0,150.43,532.59Z"/><circle class="cls-1" cx="204.19" cy="496.47" r="24.41"/><path class="cls-1" d="M194.12,520.85a26.08,26.08,0,0,1-8.54-5.69,26.37,26.37,0,1,1,8.54,5.69Zm18.63-45.12a22.45,22.45,0,1,0,7.27,4.84A22.49,22.49,0,0,0,212.75,475.73Z"/><circle class="cls-1" cx="252.51" cy="447.93" r="16.53"/><path class="cls-1" d="M245.47,465.05a18.63,18.63,0,0,1-6-4,18.5,18.5,0,1,1,13.1,5.39A18.62,18.62,0,0,1,245.47,465.05Zm12.61-30.59a14.57,14.57,0,1,0,4.71,3.14A14.61,14.61,0,0,0,258.08,434.46Z"/><circle class="cls-1" cx="288.34" cy="411.94" r="10.63"/><path class="cls-1" d="M283.53,423.58a12.6,12.6,0,0,1-4.12-20.53h0a12.6,12.6,0,1,1,4.12,20.53Zm8.11-19.66a8.72,8.72,0,0,0-9.44,1.91h0a8.63,8.63,0,1,0,9.44-1.91Z"/><circle class="cls-1" cx="310.28" cy="389.9" r="7.09"/><path class="cls-1" d="M306.83,398.26a8.64,8.64,0,0,1-2.93-1.95,9,9,0,0,1,0-12.8h0a9,9,0,0,1,12.8,0,9.05,9.05,0,0,1-9.84,14.78Zm5.4-13.1a5.15,5.15,0,0,0-2-.38,5,5,0,0,0-3.61,1.51h0a5.12,5.12,0,0,0,0,7.23,5.12,5.12,0,1,0,7.22-7.25A5,5,0,0,0,312.23,385.16Z"/><circle class="cls-1" cx="562.19" cy="136.85" r="35.04"/><path class="cls-1" d="M548.1,171.09a37.13,37.13,0,1,1,14.18,2.76A36.9,36.9,0,0,1,548.1,171.09Zm26.69-64.84a33.12,33.12,0,1,0,10.73,7.16A33.11,33.11,0,0,0,574.79,106.25Z"/><circle class="cls-1" cx="495.81" cy="203.53" r="24.41"/><path class="cls-1" d="M485.74,227.91a26.38,26.38,0,1,1,28.77-5.77A26.45,26.45,0,0,1,485.74,227.91Zm18.64-45.12a22.45,22.45,0,1,0,7.26,4.84A22.48,22.48,0,0,0,504.38,182.79Z"/><circle class="cls-1" cx="447.49" cy="252.07" r="16.53"/><path class="cls-1" d="M440.42,269.17a18.29,18.29,0,0,1-6-4,18.51,18.51,0,1,1,26.17-.06h0A18.52,18.52,0,0,1,440.42,269.17ZM453,238.6a14.59,14.59,0,0,0-15.87,3.2A14.55,14.55,0,1,0,453,238.6Z"/><circle class="cls-1" cx="411.66" cy="288.06" r="10.63"/><path class="cls-1" d="M406.86,299.72a12.64,12.64,0,1,1,4.83.94A12.49,12.49,0,0,1,406.86,299.72ZM415,280.06a8.66,8.66,0,0,0-9.42,14.14,8.67,8.67,0,0,0,12.25,0h0A8.67,8.67,0,0,0,415,280.06Z"/><circle class="cls-1" cx="389.72" cy="310.1" r="7.09"/><path class="cls-1" d="M386.27,318.48a9.05,9.05,0,1,1,9.86-2h0a9,9,0,0,1-9.86,2Zm5.4-13.11a5.12,5.12,0,0,0-5.56,8.36,5.11,5.11,0,0,0,7.23,0h0a5.12,5.12,0,0,0-1.67-8.34Z"/><circle class="cls-1" cx="118.11" cy="254.56" r="29.92"/><path class="cls-1" d="M106,284a31.88,31.88,0,1,1,41.62-17.35A31.92,31.92,0,0,1,106,284Zm22.77-55.33A27.95,27.95,0,1,0,144,265.2,28,28,0,0,0,128.74,228.71Z"/><circle class="cls-1" cx="194.55" cy="286.02" r="19.68"/><path class="cls-1" d="M186.31,306a21.65,21.65,0,1,1,28.27-11.78A21.67,21.67,0,0,1,186.31,306Zm15-36.4a17.71,17.71,0,1,0,9.64,23.12A17.74,17.74,0,0,0,201.3,269.64Z"/><circle class="cls-1" cx="248.8" cy="308.35" r="12.99"/><path class="cls-1" d="M243.1,322.18A15,15,0,1,1,262.63,314,15,15,0,0,1,243.1,322.18Zm9.89-24a11,11,0,1,0,6,14.39A11,11,0,0,0,253,298.15Z"/><circle class="cls-1" cx="284.11" cy="322.88" r="8.66"/><path class="cls-1" d="M280.06,332.71a10.63,10.63,0,1,1,13.88-5.78A10.64,10.64,0,0,1,280.06,332.71Zm6.6-16a6.69,6.69,0,1,0,3.64,8.74A6.71,6.71,0,0,0,286.66,316.69Z"/><circle class="cls-1" cx="310.32" cy="333.67" r="5.51"/><path class="cls-1" d="M307.47,340.59a7.48,7.48,0,1,1,9.77-4.07A7.5,7.5,0,0,1,307.47,340.59Zm4.2-10.2A3.54,3.54,0,1,0,313.6,335,3.55,3.55,0,0,0,311.67,330.39Z"/><circle class="cls-1" cx="581.89" cy="445.44" r="29.92"/><path class="cls-1" d="M569.76,474.93a31.88,31.88,0,1,1,41.62-17.35A31.91,31.91,0,0,1,569.76,474.93Zm22.77-55.33a27.95,27.95,0,1,0,15.21,36.48A28,28,0,0,0,592.53,419.6Z"/><circle class="cls-1" cx="505.45" cy="413.98" r="19.68"/><path class="cls-1" d="M497.2,434a21.65,21.65,0,1,1,28.27-11.78A21.67,21.67,0,0,1,497.2,434Zm15-36.4a17.71,17.71,0,1,0,9.64,23.12A17.74,17.74,0,0,0,512.19,397.6Z"/><circle class="cls-1" cx="451.2" cy="391.65" r="12.99"/><path class="cls-1" d="M445.51,405.49A15,15,0,1,1,465,397.35,15,15,0,0,1,445.51,405.49Zm9.89-24a11,11,0,1,0,6,14.39A11,11,0,0,0,455.4,381.46Z"/><circle class="cls-1" cx="415.89" cy="377.12" r="8.66"/><path class="cls-1" d="M411.85,387a10.63,10.63,0,1,1,13.87-5.78A10.65,10.65,0,0,1,411.85,387Zm6.59-16a6.69,6.69,0,1,0,3.64,8.74A6.71,6.71,0,0,0,418.44,370.93Z"/><circle class="cls-1" cx="389.68" cy="366.33" r="5.51"/><path class="cls-1" d="M386.83,373.25a7.48,7.48,0,1,1,9.77-4.07A7.5,7.5,0,0,1,386.83,373.25Zm4.2-10.19a3.54,3.54,0,1,0,1.93,4.62A3.55,3.55,0,0,0,391,363.06Z"/><circle class="cls-1" cx="446.49" cy="581.46" r="29.92"/><path class="cls-1" d="M434.35,611a31.89,31.89,0,1,1,24.41-.06A31.69,31.69,0,0,1,434.35,611Zm22.77-55.33a27.94,27.94,0,0,0-36.43,36.6h0a27.95,27.95,0,1,0,36.43-36.6Z"/><circle class="cls-1" cx="414.68" cy="505.16" r="19.68"/><path class="cls-1" d="M406.44,525.18a21.55,21.55,0,0,1-11.75-11.69h0a21.66,21.66,0,1,1,11.75,11.69Zm15-36.4A17.7,17.7,0,0,0,398.33,512h0a17.71,17.71,0,1,0,23.09-23.19Z"/><circle class="cls-1" cx="392.11" cy="451.02" r="12.99"/><path class="cls-1" d="M386.42,464.84a15,15,0,1,1,11.44,0A14.9,14.9,0,0,1,386.42,464.84Zm9.88-24a11,11,0,1,0,6,5.94A10.95,10.95,0,0,0,396.3,440.83Z"/><circle class="cls-1" cx="377.42" cy="415.77" r="8.66"/><path class="cls-1" d="M373.37,425.6a10.56,10.56,0,0,1-5.76-5.74h0a10.62,10.62,0,1,1,5.76,5.74Zm6.59-16a6.69,6.69,0,0,0-8.72,8.76h0a6.69,6.69,0,1,0,12.35-5.15A6.59,6.59,0,0,0,380,409.58Z"/><circle class="cls-1" cx="366.51" cy="389.61" r="5.51"/><path class="cls-1" d="M363.66,396.52a7.43,7.43,0,0,1-4.05-4h0a7.47,7.47,0,0,1,9.75-9.79,7.4,7.4,0,0,1,4.05,4,7.47,7.47,0,0,1-9.75,9.79Zm-.42-5.55a3.54,3.54,0,1,0,4.62-4.64,3.49,3.49,0,0,0-2.71,0,3.54,3.54,0,0,0-1.91,4.63Z"/><circle class="cls-1" cx="253.51" cy="118.54" r="29.92"/><path class="cls-1" d="M241.38,148a31.88,31.88,0,1,1,24.4,0A31.79,31.79,0,0,1,241.38,148ZM264.15,92.7a27.94,27.94,0,1,0,15.16,15.08A27.87,27.87,0,0,0,264.15,92.7Z"/><circle class="cls-1" cx="285.32" cy="194.84" r="19.68"/><path class="cls-1" d="M277.08,214.87a21.65,21.65,0,1,1,28.23-28.36h0a21.66,21.66,0,0,1-28.23,28.36Zm15-36.41a17.73,17.73,0,1,0,9.6,9.57h0A17.6,17.6,0,0,0,292.07,178.46Z"/><circle class="cls-1" cx="307.89" cy="248.99" r="12.99"/><path class="cls-1" d="M302.2,262.82a15,15,0,1,1,11.45,0A14.86,14.86,0,0,1,302.2,262.82Zm9.89-24a11,11,0,1,0,6,6A11,11,0,0,0,312.09,238.79Z"/><circle class="cls-1" cx="322.58" cy="284.23" r="8.66"/><path class="cls-1" d="M318.54,294.06a10.63,10.63,0,1,1,8.13,0A10.61,10.61,0,0,1,318.54,294.06Zm6.59-16a6.63,6.63,0,0,0-5.12,0,6.71,6.71,0,1,0,5.12,0Z"/><circle class="cls-1" cx="333.49" cy="310.39" r="5.51"/><path class="cls-1" d="M330.64,317.31a7.48,7.48,0,1,1,9.75-9.79h0a7.47,7.47,0,0,1-9.75,9.79Zm4.2-10.19a3.54,3.54,0,1,0,1.92,1.91A3.53,3.53,0,0,0,334.84,307.12Z"/><circle class="cls-1" cx="254.56" cy="581.89" r="29.92"/><path class="cls-1" d="M242.42,611.38A31.88,31.88,0,1,1,284,594,31.92,31.92,0,0,1,242.42,611.38Zm22.77-55.33a27.95,27.95,0,1,0,15.21,36.48A28,28,0,0,0,265.19,556.05Z"/><circle class="cls-1" cx="286.02" cy="505.45" r="19.68"/><path class="cls-1" d="M277.78,525.47A21.65,21.65,0,1,1,306,513.69,21.68,21.68,0,0,1,277.78,525.47Zm15-36.41a17.72,17.72,0,1,0,9.64,23.13A17.74,17.74,0,0,0,292.76,489.06Z"/><circle class="cls-1" cx="308.35" cy="451.2" r="12.99"/><path class="cls-1" d="M302.65,465a15,15,0,1,1,19.53-8.14A15,15,0,0,1,302.65,465Zm9.89-24a11,11,0,1,0,6,14.39A11,11,0,0,0,312.54,441Z"/><circle class="cls-1" cx="322.88" cy="415.89" r="8.66"/><path class="cls-1" d="M318.83,425.72a10.63,10.63,0,1,1,13.88-5.78A10.63,10.63,0,0,1,318.83,425.72Zm6.6-16a6.69,6.69,0,1,0,3.64,8.74A6.71,6.71,0,0,0,325.43,409.7Z"/><circle class="cls-1" cx="333.67" cy="389.68" r="5.51"/><path class="cls-1" d="M330.82,396.6a7.48,7.48,0,1,1,9.76-4.07A7.5,7.5,0,0,1,330.82,396.6Zm4.2-10.2a3.55,3.55,0,1,0,1.92,4.63A3.56,3.56,0,0,0,335,386.4Z"/><circle class="cls-1" cx="445.44" cy="118.11" r="29.92"/><path class="cls-1" d="M433.31,147.59a31.88,31.88,0,1,1,41.62-17.35A31.91,31.91,0,0,1,433.31,147.59Zm22.77-55.33a27.95,27.95,0,1,0,15.21,36.48A28,28,0,0,0,456.08,92.26Z"/><circle class="cls-1" cx="413.98" cy="194.55" r="19.68"/><path class="cls-1" d="M405.74,214.58A21.65,21.65,0,1,1,434,202.79,21.68,21.68,0,0,1,405.74,214.58Zm15-36.41a17.72,17.72,0,1,0,9.64,23.13A17.73,17.73,0,0,0,420.72,178.17Z"/><circle class="cls-1" cx="391.65" cy="248.8" r="12.99"/><path class="cls-1" d="M386,262.63a15,15,0,1,1,19.53-8.14A15,15,0,0,1,386,262.63Zm9.89-24a11,11,0,1,0,6,14.39A11,11,0,0,0,395.85,238.6Z"/><circle class="cls-1" cx="377.12" cy="284.11" r="8.66"/><path class="cls-1" d="M373.07,293.94A10.63,10.63,0,1,1,387,288.15,10.65,10.65,0,0,1,373.07,293.94Zm6.6-16a6.69,6.69,0,1,0,3.64,8.74A6.71,6.71,0,0,0,379.67,277.92Z"/><circle class="cls-1" cx="366.33" cy="310.32" r="5.51"/><path class="cls-1" d="M363.48,317.24a7.48,7.48,0,1,1,9.77-4.07A7.5,7.5,0,0,1,363.48,317.24Zm4.2-10.2a3.55,3.55,0,1,0,1.93,4.63A3.54,3.54,0,0,0,367.68,307Z"/><circle class="cls-1" cx="118.54" cy="446.49" r="29.92"/><path class="cls-1" d="M106.41,476a31.84,31.84,0,1,1,24.4,0A31.76,31.76,0,0,1,106.41,476Zm22.77-55.32a27.93,27.93,0,1,0,15.16,15.09A27.76,27.76,0,0,0,129.18,420.64Z"/><circle class="cls-1" cx="194.84" cy="414.68" r="19.68"/><path class="cls-1" d="M186.6,434.7a21.66,21.66,0,0,1-.09-40h0a21.65,21.65,0,1,1,.09,40Zm15-36.4a17.61,17.61,0,0,0-13.56,0h0a17.72,17.72,0,1,0,13.56,0Z"/><circle class="cls-1" cx="248.99" cy="392.11" r="12.99"/><path class="cls-1" d="M243.29,405.94a15,15,0,0,1-.06-27.64h0a15,15,0,1,1,.06,27.64Zm1.45-24a11,11,0,1,0,14.42,5.94,11,11,0,0,0-14.42-5.94Z"/><circle class="cls-1" cx="284.23" cy="377.42" r="8.66"/><path class="cls-1" d="M280.19,387.25a10.63,10.63,0,1,1,8.13,0A10.58,10.58,0,0,1,280.19,387.25Zm6.59-16a6.69,6.69,0,1,0,3.63,3.61A6.64,6.64,0,0,0,286.78,371.23Z"/><circle class="cls-1" cx="310.39" cy="366.51" r="5.51"/><path class="cls-1" d="M307.55,373.42a7.47,7.47,0,0,1,0-13.81h0a7.48,7.48,0,1,1,0,13.81Zm4.19-10.19a3.54,3.54,0,0,0-2.71,0h0a3.54,3.54,0,1,0,4.63,1.91A3.48,3.48,0,0,0,311.74,363.23Z"/><circle class="cls-1" cx="581.46" cy="253.51" r="29.92"/><path class="cls-1" d="M569.33,283a31.88,31.88,0,1,1,24.4-.05A31.69,31.69,0,0,1,569.33,283Zm22.77-55.33a27.95,27.95,0,1,0,15.16,15.09A27.74,27.74,0,0,0,592.1,227.67Z"/><circle class="cls-1" cx="505.16" cy="285.32" r="19.68"/><path class="cls-1" d="M496.92,305.34a21.64,21.64,0,1,1,16.57,0h0A21.62,21.62,0,0,1,496.92,305.34Zm15-36.4a17.72,17.72,0,1,0,.07,32.73h0a17.71,17.71,0,0,0-.07-32.73Z"/><circle class="cls-1" cx="451.02" cy="307.89" r="12.99"/><path class="cls-1" d="M445.32,321.72a15,15,0,1,1,11.45,0h0A14.9,14.9,0,0,1,445.32,321.72Zm9.89-24a11,11,0,0,0-14.37,14.43,11.05,11.05,0,0,0,14.42,5.94h0a11,11,0,0,0-.05-20.37Z"/><circle class="cls-1" cx="415.77" cy="322.58" r="8.66"/><path class="cls-1" d="M411.73,332.41a10.63,10.63,0,1,1,8.13,0h0A10.65,10.65,0,0,1,411.73,332.41Zm6.58-16A6.68,6.68,0,1,0,422,320,6.68,6.68,0,0,0,418.31,316.4Z"/><circle class="cls-1" cx="389.61" cy="333.49" r="5.51"/><path class="cls-1" d="M386.76,340.4a7.48,7.48,0,1,1,5.72,0h0A7.41,7.41,0,0,1,386.76,340.4ZM391,330.21a3.54,3.54,0,1,0,1.93,1.92A3.59,3.59,0,0,0,391,330.21Z"/></svg>